<svg width="20" height="12" viewBox="0 0 20 12" fill="none" xmlns="http://www.w3.org/2000/svg">
<path d="M8.35231 7.192V8.36H6.96031V11H5.53631V8.36H0.960313V7.304L4.17631 0.136L5.40831 0.648L2.51231 7.192H5.55231L5.68031 4.312H6.96031V7.192H8.35231ZM10.7399 8.968C11.0599 8.968 11.3266 9.07467 11.5399 9.288C11.7533 9.50133 11.8599 9.76267 11.8599 10.072C11.8599 10.3813 11.7533 10.648 11.5399 10.872C11.3266 11.0853 11.0599 11.192 10.7399 11.192C10.4306 11.192 10.1693 11.0853 9.95594 10.872C9.7426 10.648 9.63594 10.3813 9.63594 10.072C9.63594 9.76267 9.7426 9.50133 9.95594 9.288C10.1693 9.07467 10.4306 8.968 10.7399 8.968ZM16.4174 0.136C17.5481 0.136 18.4068 0.509333 18.9934 1.256C19.5801 1.992 19.8734 3.00533 19.8734 4.296C19.8734 5.75733 19.6761 6.936 19.2814 7.832C18.8868 8.71733 18.2841 9.42667 17.4734 9.96C16.6628 10.4827 15.5641 10.9467 14.1774 11.352L13.8414 10.248C15.2708 9.84267 16.3641 9.29333 17.1214 8.6C17.8894 7.90667 18.3001 6.984 18.3534 5.832C18.1081 6.216 17.7774 6.52533 17.3614 6.76C16.9454 6.99467 16.4761 7.112 15.9534 7.112C15.3988 7.112 14.8974 6.97333 14.4494 6.696C14.0014 6.408 13.6441 6.008 13.3774 5.496C13.1214 4.97333 12.9934 4.36533 12.9934 3.672C12.9934 2.94667 13.1481 2.31733 13.4574 1.784C13.7668 1.25067 14.1774 0.845333 14.6894 0.568C15.2121 0.28 15.7881 0.136 16.4174 0.136ZM16.2574 5.96C17.1001 5.96 17.8094 5.51733 18.3854 4.632C18.4068 3.448 18.2574 2.6 17.9374 2.088C17.6281 1.56533 17.1321 1.304 16.4494 1.304C15.8201 1.304 15.3348 1.512 14.9934 1.928C14.6521 2.344 14.4814 2.936 14.4814 3.704C14.4814 4.45067 14.6414 5.016 14.9614 5.4C15.2814 5.77333 15.7134 5.96 16.2574 5.96Z" fill="#FAFAFA"/>
</svg>
