<?xml version="1.0" encoding="UTF-8"?>
<svg xmlns="http://www.w3.org/2000/svg" xmlns:xlink="http://www.w3.org/1999/xlink" width="112px" height="16px" viewBox="0 0 112 16" version="1.1">
<defs>
<clipPath id="clip1">
  <path d="M 1 1 L 15 1 L 15 15 L 1 15 Z M 1 1 "/>
</clipPath>
<clipPath id="clip2">
  <path d="M 5 0 L 11 0 C 13.761719 0 16 2.238281 16 5 L 16 11 C 16 13.761719 13.761719 16 11 16 L 5 16 C 2.238281 16 0 13.761719 0 11 L 0 5 C 0 2.238281 2.238281 0 5 0 Z M 5 0 "/>
</clipPath>
<clipPath id="clip3">
  <path d="M 0 0 L 16 0 L 16 16 L 0 16 Z M 0 0 "/>
</clipPath>
<clipPath id="clip4">
  <path d="M 5 0 L 11 0 C 13.761719 0 16 2.238281 16 5 L 16 11 C 16 13.761719 13.761719 16 11 16 L 5 16 C 2.238281 16 0 13.761719 0 11 L 0 5 C 0 2.238281 2.238281 0 5 0 Z M 5 0 "/>
</clipPath>
<clipPath id="clip5">
  <path d="M 25 1 L 39 1 L 39 15 L 25 15 Z M 25 1 "/>
</clipPath>
<clipPath id="clip6">
  <path d="M 29 0 L 35 0 C 37.761719 0 40 2.238281 40 5 L 40 11 C 40 13.761719 37.761719 16 35 16 L 29 16 C 26.238281 16 24 13.761719 24 11 L 24 5 C 24 2.238281 26.238281 0 29 0 Z M 29 0 "/>
</clipPath>
<clipPath id="clip7">
  <path d="M 24 0 L 40 0 L 40 16 L 24 16 Z M 24 0 "/>
</clipPath>
<clipPath id="clip8">
  <path d="M 29 0 L 35 0 C 37.761719 0 40 2.238281 40 5 L 40 11 C 40 13.761719 37.761719 16 35 16 L 29 16 C 26.238281 16 24 13.761719 24 11 L 24 5 C 24 2.238281 26.238281 0 29 0 Z M 29 0 "/>
</clipPath>
<clipPath id="clip9">
  <path d="M 49 1 L 63 1 L 63 15 L 49 15 Z M 49 1 "/>
</clipPath>
<clipPath id="clip10">
  <path d="M 53 0 L 59 0 C 61.761719 0 64 2.238281 64 5 L 64 11 C 64 13.761719 61.761719 16 59 16 L 53 16 C 50.238281 16 48 13.761719 48 11 L 48 5 C 48 2.238281 50.238281 0 53 0 Z M 53 0 "/>
</clipPath>
<clipPath id="clip11">
  <path d="M 48 0 L 64 0 L 64 16 L 48 16 Z M 48 0 "/>
</clipPath>
<clipPath id="clip12">
  <path d="M 53 0 L 59 0 C 61.761719 0 64 2.238281 64 5 L 64 11 C 64 13.761719 61.761719 16 59 16 L 53 16 C 50.238281 16 48 13.761719 48 11 L 48 5 C 48 2.238281 50.238281 0 53 0 Z M 53 0 "/>
</clipPath>
<clipPath id="clip13">
  <path d="M 73 1 L 87 1 L 87 15 L 73 15 Z M 73 1 "/>
</clipPath>
<clipPath id="clip14">
  <path d="M 77 0 L 83 0 C 85.761719 0 88 2.238281 88 5 L 88 11 C 88 13.761719 85.761719 16 83 16 L 77 16 C 74.238281 16 72 13.761719 72 11 L 72 5 C 72 2.238281 74.238281 0 77 0 Z M 77 0 "/>
</clipPath>
<clipPath id="clip15">
  <path d="M 72 0 L 88 0 L 88 16 L 72 16 Z M 72 0 "/>
</clipPath>
<clipPath id="clip16">
  <path d="M 77 0 L 83 0 C 85.761719 0 88 2.238281 88 5 L 88 11 C 88 13.761719 85.761719 16 83 16 L 77 16 C 74.238281 16 72 13.761719 72 11 L 72 5 C 72 2.238281 74.238281 0 77 0 Z M 77 0 "/>
</clipPath>
<clipPath id="clip17">
  <path d="M 97 1 L 111 1 L 111 15 L 97 15 Z M 97 1 "/>
</clipPath>
<clipPath id="clip18">
  <path d="M 101 0 L 107 0 C 109.761719 0 112 2.238281 112 5 L 112 11 C 112 13.761719 109.761719 16 107 16 L 101 16 C 98.238281 16 96 13.761719 96 11 L 96 5 C 96 2.238281 98.238281 0 101 0 Z M 101 0 "/>
</clipPath>
<clipPath id="clip19">
  <path d="M 96 0 L 112 0 L 112 16 L 96 16 Z M 96 0 "/>
</clipPath>
<clipPath id="clip20">
  <path d="M 101 0 L 107 0 C 109.761719 0 112 2.238281 112 5 L 112 11 C 112 13.761719 109.761719 16 107 16 L 101 16 C 98.238281 16 96 13.761719 96 11 L 96 5 C 96 2.238281 98.238281 0 101 0 Z M 101 0 "/>
</clipPath>
</defs>
<g id="surface1">
<g clip-path="url(#clip1)" clip-rule="nonzero">
<g clip-path="url(#clip2)" clip-rule="nonzero">
<path style=" stroke:none;fill-rule:nonzero;fill:rgb(99.215686%,95.686275%,10.196078%);fill-opacity:1;" d="M 6.101562 3.605469 C 6.945312 2.089844 7.367188 1.332031 8 1.332031 C 8.632812 1.332031 9.054688 2.089844 9.898438 3.605469 L 10.117188 3.996094 C 10.355469 4.429688 10.476562 4.644531 10.664062 4.785156 C 10.851562 4.925781 11.082031 4.980469 11.550781 5.085938 L 11.972656 5.179688 C 13.613281 5.550781 14.433594 5.738281 14.628906 6.363281 C 14.824219 6.992188 14.265625 7.644531 13.148438 8.953125 L 12.855469 9.292969 C 12.539062 9.664062 12.378906 9.847656 12.308594 10.078125 C 12.238281 10.308594 12.261719 10.554688 12.308594 11.050781 L 12.355469 11.503906 C 12.523438 13.246094 12.605469 14.117188 12.097656 14.507812 C 11.585938 14.894531 10.816406 14.539062 9.28125 13.835938 L 8.886719 13.652344 C 8.449219 13.449219 8.230469 13.351562 8 13.351562 C 7.769531 13.351562 7.550781 13.449219 7.113281 13.652344 L 6.71875 13.835938 C 5.183594 14.539062 4.414062 14.894531 3.902344 14.507812 C 3.394531 14.117188 3.476562 13.246094 3.644531 11.503906 L 3.691406 11.050781 C 3.738281 10.554688 3.761719 10.308594 3.691406 10.078125 C 3.617188 9.847656 3.460938 9.664062 3.140625 9.292969 L 2.851562 8.953125 C 1.734375 7.644531 1.175781 6.992188 1.371094 6.363281 C 1.566406 5.738281 2.386719 5.550781 4.027344 5.179688 L 4.449219 5.085938 C 4.917969 4.980469 5.148438 4.925781 5.335938 4.785156 C 5.523438 4.644531 5.644531 4.429688 5.882812 3.996094 Z M 6.101562 3.605469 "/>
</g>
</g>
<g clip-path="url(#clip3)" clip-rule="nonzero">
<g clip-path="url(#clip4)" clip-rule="nonzero">
<path style="fill:none;stroke-width:1.5;stroke-linecap:butt;stroke-linejoin:miter;stroke:rgb(99.215686%,95.686275%,10.196078%);stroke-opacity:1;stroke-miterlimit:4;" d="M 6.101562 3.605469 C 6.945312 2.089844 7.367188 1.332031 8 1.332031 C 8.632812 1.332031 9.054688 2.089844 9.898438 3.605469 L 10.117188 3.996094 C 10.355469 4.429688 10.476562 4.644531 10.664062 4.785156 C 10.851562 4.925781 11.082031 4.980469 11.550781 5.085938 L 11.972656 5.179688 C 13.613281 5.550781 14.433594 5.738281 14.628906 6.363281 C 14.824219 6.992188 14.265625 7.644531 13.148438 8.953125 L 12.855469 9.292969 C 12.539062 9.664062 12.378906 9.847656 12.308594 10.078125 C 12.238281 10.308594 12.261719 10.554688 12.308594 11.050781 L 12.355469 11.503906 C 12.523438 13.246094 12.605469 14.117188 12.097656 14.507812 C 11.585938 14.894531 10.816406 14.539062 9.28125 13.835938 L 8.886719 13.652344 C 8.449219 13.449219 8.230469 13.351562 8 13.351562 C 7.769531 13.351562 7.550781 13.449219 7.113281 13.652344 L 6.71875 13.835938 C 5.183594 14.539062 4.414062 14.894531 3.902344 14.507812 C 3.394531 14.117188 3.476562 13.246094 3.644531 11.503906 L 3.691406 11.050781 C 3.738281 10.554688 3.761719 10.308594 3.691406 10.078125 C 3.617188 9.847656 3.460938 9.664062 3.140625 9.292969 L 2.851562 8.953125 C 1.734375 7.644531 1.175781 6.992188 1.371094 6.363281 C 1.566406 5.738281 2.386719 5.550781 4.027344 5.179688 L 4.449219 5.085938 C 4.917969 4.980469 5.148438 4.925781 5.335938 4.785156 C 5.523438 4.644531 5.644531 4.429688 5.882812 3.996094 Z M 6.101562 3.605469 "/>
</g>
</g>
<g clip-path="url(#clip5)" clip-rule="nonzero">
<g clip-path="url(#clip6)" clip-rule="nonzero">
<path style=" stroke:none;fill-rule:nonzero;fill:rgb(99.215686%,95.686275%,10.196078%);fill-opacity:1;" d="M 30.101562 3.605469 C 30.945312 2.089844 31.367188 1.332031 32 1.332031 C 32.632812 1.332031 33.054688 2.089844 33.898438 3.605469 L 34.117188 3.996094 C 34.355469 4.429688 34.476562 4.644531 34.664062 4.785156 C 34.851562 4.925781 35.082031 4.980469 35.550781 5.085938 L 35.972656 5.179688 C 37.613281 5.550781 38.433594 5.738281 38.628906 6.363281 C 38.824219 6.992188 38.265625 7.644531 37.148438 8.953125 L 36.855469 9.292969 C 36.539062 9.664062 36.378906 9.847656 36.308594 10.078125 C 36.238281 10.308594 36.261719 10.554688 36.308594 11.050781 L 36.355469 11.503906 C 36.523438 13.246094 36.605469 14.117188 36.097656 14.507812 C 35.585938 14.894531 34.816406 14.539062 33.28125 13.835938 L 32.886719 13.652344 C 32.449219 13.449219 32.230469 13.351562 32 13.351562 C 31.769531 13.351562 31.550781 13.449219 31.113281 13.652344 L 30.71875 13.835938 C 29.183594 14.539062 28.414062 14.894531 27.902344 14.507812 C 27.394531 14.117188 27.476562 13.246094 27.644531 11.503906 L 27.691406 11.050781 C 27.738281 10.554688 27.761719 10.308594 27.691406 10.078125 C 27.617188 9.847656 27.460938 9.664062 27.140625 9.292969 L 26.851562 8.953125 C 25.734375 7.644531 25.175781 6.992188 25.371094 6.363281 C 25.566406 5.738281 26.386719 5.550781 28.027344 5.179688 L 28.449219 5.085938 C 28.917969 4.980469 29.148438 4.925781 29.335938 4.785156 C 29.523438 4.644531 29.644531 4.429688 29.882812 3.996094 Z M 30.101562 3.605469 "/>
</g>
</g>
<g clip-path="url(#clip7)" clip-rule="nonzero">
<g clip-path="url(#clip8)" clip-rule="nonzero">
<path style="fill:none;stroke-width:1.5;stroke-linecap:butt;stroke-linejoin:miter;stroke:rgb(99.215686%,95.686275%,10.196078%);stroke-opacity:1;stroke-miterlimit:4;" d="M 30.101562 3.605469 C 30.945312 2.089844 31.367188 1.332031 32 1.332031 C 32.632812 1.332031 33.054688 2.089844 33.898438 3.605469 L 34.117188 3.996094 C 34.355469 4.429688 34.476562 4.644531 34.664062 4.785156 C 34.851562 4.925781 35.082031 4.980469 35.550781 5.085938 L 35.972656 5.179688 C 37.613281 5.550781 38.433594 5.738281 38.628906 6.363281 C 38.824219 6.992188 38.265625 7.644531 37.148438 8.953125 L 36.855469 9.292969 C 36.539062 9.664062 36.378906 9.847656 36.308594 10.078125 C 36.238281 10.308594 36.261719 10.554688 36.308594 11.050781 L 36.355469 11.503906 C 36.523438 13.246094 36.605469 14.117188 36.097656 14.507812 C 35.585938 14.894531 34.816406 14.539062 33.28125 13.835938 L 32.886719 13.652344 C 32.449219 13.449219 32.230469 13.351562 32 13.351562 C 31.769531 13.351562 31.550781 13.449219 31.113281 13.652344 L 30.71875 13.835938 C 29.183594 14.539062 28.414062 14.894531 27.902344 14.507812 C 27.394531 14.117188 27.476562 13.246094 27.644531 11.503906 L 27.691406 11.050781 C 27.738281 10.554688 27.761719 10.308594 27.691406 10.078125 C 27.617188 9.847656 27.460938 9.664062 27.140625 9.292969 L 26.851562 8.953125 C 25.734375 7.644531 25.175781 6.992188 25.371094 6.363281 C 25.566406 5.738281 26.386719 5.550781 28.027344 5.179688 L 28.449219 5.085938 C 28.917969 4.980469 29.148438 4.925781 29.335938 4.785156 C 29.523438 4.644531 29.644531 4.429688 29.882812 3.996094 Z M 30.101562 3.605469 "/>
</g>
</g>
<g clip-path="url(#clip9)" clip-rule="nonzero">
<g clip-path="url(#clip10)" clip-rule="nonzero">
<path style=" stroke:none;fill-rule:nonzero;fill:rgb(99.215686%,95.686275%,10.196078%);fill-opacity:1;" d="M 54.101562 3.605469 C 54.945312 2.089844 55.367188 1.332031 56 1.332031 C 56.632812 1.332031 57.054688 2.089844 57.898438 3.605469 L 58.117188 3.996094 C 58.355469 4.429688 58.476562 4.644531 58.664062 4.785156 C 58.851562 4.925781 59.082031 4.980469 59.550781 5.085938 L 59.972656 5.179688 C 61.613281 5.550781 62.433594 5.738281 62.628906 6.363281 C 62.824219 6.992188 62.265625 7.644531 61.148438 8.953125 L 60.855469 9.292969 C 60.539062 9.664062 60.378906 9.847656 60.308594 10.078125 C 60.238281 10.308594 60.261719 10.554688 60.308594 11.050781 L 60.355469 11.503906 C 60.523438 13.246094 60.605469 14.117188 60.097656 14.507812 C 59.585938 14.894531 58.816406 14.539062 57.28125 13.835938 L 56.886719 13.652344 C 56.449219 13.449219 56.230469 13.351562 56 13.351562 C 55.769531 13.351562 55.550781 13.449219 55.113281 13.652344 L 54.71875 13.835938 C 53.183594 14.539062 52.414062 14.894531 51.902344 14.507812 C 51.394531 14.117188 51.476562 13.246094 51.644531 11.503906 L 51.691406 11.050781 C 51.738281 10.554688 51.761719 10.308594 51.691406 10.078125 C 51.617188 9.847656 51.460938 9.664062 51.140625 9.292969 L 50.851562 8.953125 C 49.734375 7.644531 49.175781 6.992188 49.371094 6.363281 C 49.566406 5.738281 50.386719 5.550781 52.027344 5.179688 L 52.449219 5.085938 C 52.917969 4.980469 53.148438 4.925781 53.335938 4.785156 C 53.523438 4.644531 53.644531 4.429688 53.882812 3.996094 Z M 54.101562 3.605469 "/>
</g>
</g>
<g clip-path="url(#clip11)" clip-rule="nonzero">
<g clip-path="url(#clip12)" clip-rule="nonzero">
<path style="fill:none;stroke-width:1.5;stroke-linecap:butt;stroke-linejoin:miter;stroke:rgb(99.215686%,95.686275%,10.196078%);stroke-opacity:1;stroke-miterlimit:4;" d="M 54.101562 3.605469 C 54.945312 2.089844 55.367188 1.332031 56 1.332031 C 56.632812 1.332031 57.054688 2.089844 57.898438 3.605469 L 58.117188 3.996094 C 58.355469 4.429688 58.476562 4.644531 58.664062 4.785156 C 58.851562 4.925781 59.082031 4.980469 59.550781 5.085938 L 59.972656 5.179688 C 61.613281 5.550781 62.433594 5.738281 62.628906 6.363281 C 62.824219 6.992188 62.265625 7.644531 61.148438 8.953125 L 60.855469 9.292969 C 60.539062 9.664062 60.378906 9.847656 60.308594 10.078125 C 60.238281 10.308594 60.261719 10.554688 60.308594 11.050781 L 60.355469 11.503906 C 60.523438 13.246094 60.605469 14.117188 60.097656 14.507812 C 59.585938 14.894531 58.816406 14.539062 57.28125 13.835938 L 56.886719 13.652344 C 56.449219 13.449219 56.230469 13.351562 56 13.351562 C 55.769531 13.351562 55.550781 13.449219 55.113281 13.652344 L 54.71875 13.835938 C 53.183594 14.539062 52.414062 14.894531 51.902344 14.507812 C 51.394531 14.117188 51.476562 13.246094 51.644531 11.503906 L 51.691406 11.050781 C 51.738281 10.554688 51.761719 10.308594 51.691406 10.078125 C 51.617188 9.847656 51.460938 9.664062 51.140625 9.292969 L 50.851562 8.953125 C 49.734375 7.644531 49.175781 6.992188 49.371094 6.363281 C 49.566406 5.738281 50.386719 5.550781 52.027344 5.179688 L 52.449219 5.085938 C 52.917969 4.980469 53.148438 4.925781 53.335938 4.785156 C 53.523438 4.644531 53.644531 4.429688 53.882812 3.996094 Z M 54.101562 3.605469 "/>
</g>
</g>
<g clip-path="url(#clip13)" clip-rule="nonzero">
<g clip-path="url(#clip14)" clip-rule="nonzero">
<path style=" stroke:none;fill-rule:nonzero;fill:rgb(99.215686%,95.686275%,10.196078%);fill-opacity:1;" d="M 78.101562 3.605469 C 78.945312 2.089844 79.367188 1.332031 80 1.332031 C 80.632812 1.332031 81.054688 2.089844 81.898438 3.605469 L 82.117188 3.996094 C 82.355469 4.429688 82.476562 4.644531 82.664062 4.785156 C 82.851562 4.925781 83.082031 4.980469 83.550781 5.085938 L 83.972656 5.179688 C 85.613281 5.550781 86.433594 5.738281 86.628906 6.363281 C 86.824219 6.992188 86.265625 7.644531 85.148438 8.953125 L 84.855469 9.292969 C 84.539062 9.664062 84.378906 9.847656 84.308594 10.078125 C 84.238281 10.308594 84.261719 10.554688 84.308594 11.050781 L 84.355469 11.503906 C 84.523438 13.246094 84.605469 14.117188 84.097656 14.507812 C 83.585938 14.894531 82.816406 14.539062 81.28125 13.835938 L 80.886719 13.652344 C 80.449219 13.449219 80.230469 13.351562 80 13.351562 C 79.769531 13.351562 79.550781 13.449219 79.113281 13.652344 L 78.71875 13.835938 C 77.183594 14.539062 76.414062 14.894531 75.902344 14.507812 C 75.394531 14.117188 75.476562 13.246094 75.644531 11.503906 L 75.691406 11.050781 C 75.738281 10.554688 75.761719 10.308594 75.691406 10.078125 C 75.617188 9.847656 75.460938 9.664062 75.140625 9.292969 L 74.851562 8.953125 C 73.734375 7.644531 73.175781 6.992188 73.371094 6.363281 C 73.566406 5.738281 74.386719 5.550781 76.027344 5.179688 L 76.449219 5.085938 C 76.917969 4.980469 77.148438 4.925781 77.335938 4.785156 C 77.523438 4.644531 77.644531 4.429688 77.882812 3.996094 Z M 78.101562 3.605469 "/>
</g>
</g>
<g clip-path="url(#clip15)" clip-rule="nonzero">
<g clip-path="url(#clip16)" clip-rule="nonzero">
<path style="fill:none;stroke-width:1.5;stroke-linecap:butt;stroke-linejoin:miter;stroke:rgb(99.215686%,95.686275%,10.196078%);stroke-opacity:1;stroke-miterlimit:4;" d="M 78.101562 3.605469 C 78.945312 2.089844 79.367188 1.332031 80 1.332031 C 80.632812 1.332031 81.054688 2.089844 81.898438 3.605469 L 82.117188 3.996094 C 82.355469 4.429688 82.476562 4.644531 82.664062 4.785156 C 82.851562 4.925781 83.082031 4.980469 83.550781 5.085938 L 83.972656 5.179688 C 85.613281 5.550781 86.433594 5.738281 86.628906 6.363281 C 86.824219 6.992188 86.265625 7.644531 85.148438 8.953125 L 84.855469 9.292969 C 84.539062 9.664062 84.378906 9.847656 84.308594 10.078125 C 84.238281 10.308594 84.261719 10.554688 84.308594 11.050781 L 84.355469 11.503906 C 84.523438 13.246094 84.605469 14.117188 84.097656 14.507812 C 83.585938 14.894531 82.816406 14.539062 81.28125 13.835938 L 80.886719 13.652344 C 80.449219 13.449219 80.230469 13.351562 80 13.351562 C 79.769531 13.351562 79.550781 13.449219 79.113281 13.652344 L 78.71875 13.835938 C 77.183594 14.539062 76.414062 14.894531 75.902344 14.507812 C 75.394531 14.117188 75.476562 13.246094 75.644531 11.503906 L 75.691406 11.050781 C 75.738281 10.554688 75.761719 10.308594 75.691406 10.078125 C 75.617188 9.847656 75.460938 9.664062 75.140625 9.292969 L 74.851562 8.953125 C 73.734375 7.644531 73.175781 6.992188 73.371094 6.363281 C 73.566406 5.738281 74.386719 5.550781 76.027344 5.179688 L 76.449219 5.085938 C 76.917969 4.980469 77.148438 4.925781 77.335938 4.785156 C 77.523438 4.644531 77.644531 4.429688 77.882812 3.996094 Z M 78.101562 3.605469 "/>
</g>
</g>
<g clip-path="url(#clip17)" clip-rule="nonzero">
<g clip-path="url(#clip18)" clip-rule="nonzero">
<path style=" stroke:none;fill-rule:nonzero;fill:rgb(99.215686%,95.686275%,10.196078%);fill-opacity:1;" d="M 102.101562 3.605469 C 102.945312 2.089844 103.367188 1.332031 104 1.332031 C 104.632812 1.332031 105.054688 2.089844 105.898438 3.605469 L 106.117188 3.996094 C 106.355469 4.429688 106.476562 4.644531 106.664062 4.785156 C 106.851562 4.925781 107.082031 4.980469 107.550781 5.085938 L 107.972656 5.179688 C 109.613281 5.550781 110.433594 5.738281 110.628906 6.363281 C 110.824219 6.992188 110.265625 7.644531 109.148438 8.953125 L 108.855469 9.292969 C 108.539062 9.664062 108.382812 9.847656 108.308594 10.078125 C 108.238281 10.308594 108.261719 10.554688 108.308594 11.050781 L 108.355469 11.503906 C 108.523438 13.246094 108.605469 14.117188 108.097656 14.507812 C 107.585938 14.894531 106.816406 14.539062 105.28125 13.835938 L 104.886719 13.652344 C 104.449219 13.449219 104.230469 13.351562 104 13.351562 C 103.769531 13.351562 103.550781 13.449219 103.113281 13.652344 L 102.71875 13.835938 C 101.183594 14.539062 100.414062 14.894531 99.902344 14.507812 C 99.394531 14.117188 99.476562 13.246094 99.644531 11.503906 L 99.691406 11.050781 C 99.738281 10.554688 99.761719 10.308594 99.691406 10.078125 C 99.617188 9.847656 99.460938 9.664062 99.140625 9.292969 L 98.851562 8.953125 C 97.734375 7.644531 97.175781 6.992188 97.371094 6.363281 C 97.566406 5.738281 98.386719 5.550781 100.027344 5.179688 L 100.449219 5.085938 C 100.914062 4.980469 101.148438 4.925781 101.335938 4.785156 C 101.523438 4.644531 101.644531 4.429688 101.882812 3.996094 Z M 102.101562 3.605469 "/>
</g>
</g>
<g clip-path="url(#clip19)" clip-rule="nonzero">
<g clip-path="url(#clip20)" clip-rule="nonzero">
<path style="fill:none;stroke-width:1.5;stroke-linecap:butt;stroke-linejoin:miter;stroke:rgb(99.215686%,95.686275%,10.196078%);stroke-opacity:1;stroke-miterlimit:4;" d="M 102.101562 3.605469 C 102.945312 2.089844 103.367188 1.332031 104 1.332031 C 104.632812 1.332031 105.054688 2.089844 105.898438 3.605469 L 106.117188 3.996094 C 106.355469 4.429688 106.476562 4.644531 106.664062 4.785156 C 106.851562 4.925781 107.082031 4.980469 107.550781 5.085938 L 107.972656 5.179688 C 109.613281 5.550781 110.433594 5.738281 110.628906 6.363281 C 110.824219 6.992188 110.265625 7.644531 109.148438 8.953125 L 108.855469 9.292969 C 108.539062 9.664062 108.382812 9.847656 108.308594 10.078125 C 108.238281 10.308594 108.261719 10.554688 108.308594 11.050781 L 108.355469 11.503906 C 108.523438 13.246094 108.605469 14.117188 108.097656 14.507812 C 107.585938 14.894531 106.816406 14.539062 105.28125 13.835938 L 104.886719 13.652344 C 104.449219 13.449219 104.230469 13.351562 104 13.351562 C 103.769531 13.351562 103.550781 13.449219 103.113281 13.652344 L 102.71875 13.835938 C 101.183594 14.539062 100.414062 14.894531 99.902344 14.507812 C 99.394531 14.117188 99.476562 13.246094 99.644531 11.503906 L 99.691406 11.050781 C 99.738281 10.554688 99.761719 10.308594 99.691406 10.078125 C 99.617188 9.847656 99.460938 9.664062 99.140625 9.292969 L 98.851562 8.953125 C 97.734375 7.644531 97.175781 6.992188 97.371094 6.363281 C 97.566406 5.738281 98.386719 5.550781 100.027344 5.179688 L 100.449219 5.085938 C 100.914062 4.980469 101.148438 4.925781 101.335938 4.785156 C 101.523438 4.644531 101.644531 4.429688 101.882812 3.996094 Z M 102.101562 3.605469 "/>
</g>
</g>
</g>
</svg>
